# xmcd CD database file
#
# Track frame offsets:
#	150
#	20032
#	38722
#	54997
#
# Disc length: 1028 seconds
#
# Revision: 0
# Processed by: cddbd v1.4PL0 Copyright (c) Steve Scherf et al.
# Submitted via: CD2WAV32(EN) R3.19
#
DISCID=2a040204
DTITLE=love tambourines - cherish our love
DYEAR=1900
DGENRE=
TTITLE0=Cherish Our Love
TTITLE1=Love Space
TTITLE2=Love Is Here
TTITLE3=Love Is Life To Women
EXTD=
EXTT0=
EXTT1=
EXTT2=
EXTT3=
PLAYORDER=
